<mxfile host="Electron" agent="Mozilla/5.0 (Macintosh; Intel Mac OS X 10_15_7) AppleWebKit/537.36 (KHTML, like Gecko) draw.io/28.2.5 Chrome/138.0.7204.251 Electron/37.6.1 Safari/537.36" version="28.2.5" pages="2">
  <diagram name="Unlock Vault" id="pP6OVJfJ_gMip8gWtHHs">
    <mxGraphModel dx="1169" dy="714" grid="0" gridSize="10" guides="1" tooltips="1" connect="1" arrows="1" fold="1" page="1" pageScale="1" pageWidth="1100" pageHeight="850" background="none" math="0" shadow="0">
      <root>
        <mxCell id="0" />
        <mxCell id="1" parent="0" />
        <mxCell id="kFtWYokVd-4Yp39-Zs3k-4" style="edgeStyle=orthogonalEdgeStyle;rounded=0;orthogonalLoop=1;jettySize=auto;html=1;" parent="1" source="kFtWYokVd-4Yp39-Zs3k-1" target="kFtWYokVd-4Yp39-Zs3k-3" edge="1">
          <mxGeometry relative="1" as="geometry" />
        </mxCell>
        <mxCell id="kFtWYokVd-4Yp39-Zs3k-1" value="Unlock vault" style="strokeWidth=2;html=1;shape=mxgraph.flowchart.start_1;whiteSpace=wrap;" parent="1" vertex="1">
          <mxGeometry x="40" y="40" width="100" height="60" as="geometry" />
        </mxCell>
        <mxCell id="C2cE2xizqfg0F3UBhEci-11" value="Yes" style="edgeStyle=orthogonalEdgeStyle;rounded=0;orthogonalLoop=1;jettySize=auto;html=1;" parent="1" source="kFtWYokVd-4Yp39-Zs3k-3" target="C2cE2xizqfg0F3UBhEci-10" edge="1">
          <mxGeometry relative="1" as="geometry" />
        </mxCell>
        <mxCell id="C2cE2xizqfg0F3UBhEci-14" value="No" style="edgeStyle=orthogonalEdgeStyle;rounded=0;orthogonalLoop=1;jettySize=auto;html=1;" parent="1" source="kFtWYokVd-4Yp39-Zs3k-3" target="C2cE2xizqfg0F3UBhEci-13" edge="1">
          <mxGeometry relative="1" as="geometry" />
        </mxCell>
        <mxCell id="kFtWYokVd-4Yp39-Zs3k-3" value="Using TID?" style="strokeWidth=2;html=1;shape=mxgraph.flowchart.decision;whiteSpace=wrap;fillColor=#f8cecc;strokeColor=#b85450;" parent="1" vertex="1">
          <mxGeometry x="40" y="140" width="100" height="100" as="geometry" />
        </mxCell>
        <mxCell id="C2cE2xizqfg0F3UBhEci-18" value="No" style="edgeStyle=orthogonalEdgeStyle;rounded=0;orthogonalLoop=1;jettySize=auto;html=1;" parent="1" source="kFtWYokVd-4Yp39-Zs3k-9" target="kFtWYokVd-4Yp39-Zs3k-43" edge="1">
          <mxGeometry relative="1" as="geometry" />
        </mxCell>
        <mxCell id="kFtWYokVd-4Yp39-Zs3k-9" value="Password?" style="strokeWidth=2;html=1;shape=mxgraph.flowchart.decision;whiteSpace=wrap;fillColor=#dae8fc;strokeColor=#6c8ebf;" parent="1" vertex="1">
          <mxGeometry x="370" y="140" width="100" height="100" as="geometry" />
        </mxCell>
        <mxCell id="kFtWYokVd-4Yp39-Zs3k-47" value="Yes" style="edgeStyle=orthogonalEdgeStyle;rounded=0;orthogonalLoop=1;jettySize=auto;html=1;" parent="1" source="kFtWYokVd-4Yp39-Zs3k-16" target="kFtWYokVd-4Yp39-Zs3k-17" edge="1">
          <mxGeometry relative="1" as="geometry" />
        </mxCell>
        <mxCell id="C2cE2xizqfg0F3UBhEci-15" value="No" style="edgeStyle=orthogonalEdgeStyle;rounded=0;orthogonalLoop=1;jettySize=auto;html=1;" parent="1" source="kFtWYokVd-4Yp39-Zs3k-16" target="C2cE2xizqfg0F3UBhEci-13" edge="1">
          <mxGeometry relative="1" as="geometry" />
        </mxCell>
        <mxCell id="kFtWYokVd-4Yp39-Zs3k-16" value="TID enabled?" style="strokeWidth=2;html=1;shape=mxgraph.flowchart.decision;whiteSpace=wrap;fillColor=#f8cecc;strokeColor=#b85450;" parent="1" vertex="1">
          <mxGeometry x="190" y="268" width="100" height="100" as="geometry" />
        </mxCell>
        <mxCell id="kFtWYokVd-4Yp39-Zs3k-17" value="Get password&amp;nbsp;&lt;span style=&quot;background-color: transparent; color: light-dark(rgb(0, 0, 0), rgb(255, 255, 255));&quot;&gt;from&lt;/span&gt;&lt;div&gt;&lt;span style=&quot;background-color: transparent; color: light-dark(rgb(0, 0, 0), rgb(255, 255, 255));&quot;&gt;secure location&lt;/span&gt;&lt;/div&gt;" style="shape=parallelogram;html=1;strokeWidth=2;perimeter=parallelogramPerimeter;whiteSpace=wrap;rounded=1;arcSize=12;size=0.23;fillColor=#f8cecc;strokeColor=#b85450;" parent="1" vertex="1">
          <mxGeometry x="160" y="440" width="160" height="60" as="geometry" />
        </mxCell>
        <mxCell id="C2cE2xizqfg0F3UBhEci-23" value="No" style="edgeStyle=orthogonalEdgeStyle;rounded=0;orthogonalLoop=1;jettySize=auto;html=1;" parent="1" source="kFtWYokVd-4Yp39-Zs3k-30" target="C2cE2xizqfg0F3UBhEci-22" edge="1">
          <mxGeometry relative="1" as="geometry" />
        </mxCell>
        <mxCell id="C2cE2xizqfg0F3UBhEci-30" value="Yes" style="edgeStyle=orthogonalEdgeStyle;rounded=0;orthogonalLoop=1;jettySize=auto;html=1;" parent="1" source="kFtWYokVd-4Yp39-Zs3k-30" target="C2cE2xizqfg0F3UBhEci-25" edge="1">
          <mxGeometry relative="1" as="geometry" />
        </mxCell>
        <mxCell id="kFtWYokVd-4Yp39-Zs3k-30" value="Password?" style="strokeWidth=2;html=1;shape=mxgraph.flowchart.decision;whiteSpace=wrap;fillColor=#dae8fc;strokeColor=#6c8ebf;" parent="1" vertex="1">
          <mxGeometry x="530" y="250" width="100" height="100" as="geometry" />
        </mxCell>
        <mxCell id="kFtWYokVd-4Yp39-Zs3k-42" value="Yes" style="edgeStyle=orthogonalEdgeStyle;rounded=0;orthogonalLoop=1;jettySize=auto;html=1;" parent="1" source="kFtWYokVd-4Yp39-Zs3k-38" target="kFtWYokVd-4Yp39-Zs3k-41" edge="1">
          <mxGeometry relative="1" as="geometry" />
        </mxCell>
        <mxCell id="C2cE2xizqfg0F3UBhEci-37" value="No" style="edgeStyle=orthogonalEdgeStyle;rounded=0;orthogonalLoop=1;jettySize=auto;html=1;" parent="1" source="kFtWYokVd-4Yp39-Zs3k-38" target="C2cE2xizqfg0F3UBhEci-32" edge="1">
          <mxGeometry relative="1" as="geometry" />
        </mxCell>
        <mxCell id="kFtWYokVd-4Yp39-Zs3k-38" value="Using TID?" style="strokeWidth=2;html=1;shape=mxgraph.flowchart.decision;whiteSpace=wrap;fillColor=#f8cecc;strokeColor=#b85450;" parent="1" vertex="1">
          <mxGeometry x="370" y="490" width="100" height="100" as="geometry" />
        </mxCell>
        <mxCell id="kFtWYokVd-4Yp39-Zs3k-46" value="Yes" style="edgeStyle=orthogonalEdgeStyle;rounded=0;orthogonalLoop=1;jettySize=auto;html=1;" parent="1" source="kFtWYokVd-4Yp39-Zs3k-41" target="kFtWYokVd-4Yp39-Zs3k-45" edge="1">
          <mxGeometry relative="1" as="geometry" />
        </mxCell>
        <mxCell id="C2cE2xizqfg0F3UBhEci-40" value="No" style="edgeStyle=orthogonalEdgeStyle;rounded=0;orthogonalLoop=1;jettySize=auto;html=1;" parent="1" source="kFtWYokVd-4Yp39-Zs3k-41" target="C2cE2xizqfg0F3UBhEci-39" edge="1">
          <mxGeometry relative="1" as="geometry" />
        </mxCell>
        <mxCell id="kFtWYokVd-4Yp39-Zs3k-41" value="TID enabled?" style="strokeWidth=2;html=1;shape=mxgraph.flowchart.decision;whiteSpace=wrap;fillColor=#f8cecc;strokeColor=#b85450;" parent="1" vertex="1">
          <mxGeometry x="530" y="490" width="100" height="100" as="geometry" />
        </mxCell>
        <mxCell id="C2cE2xizqfg0F3UBhEci-21" style="edgeStyle=orthogonalEdgeStyle;rounded=0;orthogonalLoop=1;jettySize=auto;html=1;" parent="1" source="kFtWYokVd-4Yp39-Zs3k-43" target="kFtWYokVd-4Yp39-Zs3k-30" edge="1">
          <mxGeometry relative="1" as="geometry" />
        </mxCell>
        <mxCell id="kFtWYokVd-4Yp39-Zs3k-43" value="Prompt for password" style="shape=parallelogram;html=1;strokeWidth=2;perimeter=parallelogramPerimeter;whiteSpace=wrap;rounded=1;arcSize=12;size=0.23;fillColor=#dae8fc;strokeColor=#6c8ebf;" parent="1" vertex="1">
          <mxGeometry x="530" y="160" width="100" height="60" as="geometry" />
        </mxCell>
        <mxCell id="kFtWYokVd-4Yp39-Zs3k-49" value="Yes" style="edgeStyle=orthogonalEdgeStyle;rounded=0;orthogonalLoop=1;jettySize=auto;html=1;" parent="1" source="kFtWYokVd-4Yp39-Zs3k-45" target="kFtWYokVd-4Yp39-Zs3k-48" edge="1">
          <mxGeometry relative="1" as="geometry" />
        </mxCell>
        <mxCell id="C2cE2xizqfg0F3UBhEci-42" value="No" style="edgeStyle=orthogonalEdgeStyle;rounded=0;orthogonalLoop=1;jettySize=auto;html=1;" parent="1" source="kFtWYokVd-4Yp39-Zs3k-45" target="C2cE2xizqfg0F3UBhEci-41" edge="1">
          <mxGeometry relative="1" as="geometry" />
        </mxCell>
        <mxCell id="kFtWYokVd-4Yp39-Zs3k-45" value="Success?" style="rhombus;whiteSpace=wrap;html=1;strokeWidth=2;fillColor=#f8cecc;strokeColor=#b85450;" parent="1" vertex="1">
          <mxGeometry x="700" y="500" width="80" height="80" as="geometry" />
        </mxCell>
        <mxCell id="Rjem1qnT5105job-FSoT-3" style="edgeStyle=orthogonalEdgeStyle;rounded=0;orthogonalLoop=1;jettySize=auto;html=1;" parent="1" source="kFtWYokVd-4Yp39-Zs3k-48" target="Rjem1qnT5105job-FSoT-1" edge="1">
          <mxGeometry relative="1" as="geometry" />
        </mxCell>
        <mxCell id="kFtWYokVd-4Yp39-Zs3k-48" value="Save password" style="rounded=1;whiteSpace=wrap;html=1;absoluteArcSize=1;arcSize=14;strokeWidth=2;fillColor=#f8cecc;strokeColor=#b85450;" parent="1" vertex="1">
          <mxGeometry x="860" y="490" width="100" height="100" as="geometry" />
        </mxCell>
        <mxCell id="Rjem1qnT5105job-FSoT-4" style="edgeStyle=orthogonalEdgeStyle;rounded=0;orthogonalLoop=1;jettySize=auto;html=1;" parent="1" source="kFtWYokVd-4Yp39-Zs3k-50" target="Rjem1qnT5105job-FSoT-1" edge="1">
          <mxGeometry relative="1" as="geometry" />
        </mxCell>
        <mxCell id="kFtWYokVd-4Yp39-Zs3k-50" value="Remove password from cache" style="rounded=1;whiteSpace=wrap;html=1;absoluteArcSize=1;arcSize=14;strokeWidth=2;fillColor=#f8cecc;strokeColor=#b85450;" parent="1" vertex="1">
          <mxGeometry x="860" y="650" width="100" height="100" as="geometry" />
        </mxCell>
        <mxCell id="C2cE2xizqfg0F3UBhEci-12" style="edgeStyle=orthogonalEdgeStyle;rounded=0;orthogonalLoop=1;jettySize=auto;html=1;" parent="1" source="C2cE2xizqfg0F3UBhEci-10" target="kFtWYokVd-4Yp39-Zs3k-16" edge="1">
          <mxGeometry relative="1" as="geometry" />
        </mxCell>
        <mxCell id="C2cE2xizqfg0F3UBhEci-10" value="configure_tid" style="verticalLabelPosition=bottom;verticalAlign=top;html=1;shape=process;whiteSpace=wrap;rounded=1;size=0.14;arcSize=6;fillColor=#f8cecc;strokeColor=#b85450;" parent="1" vertex="1">
          <mxGeometry x="40" y="288" width="100" height="60" as="geometry" />
        </mxCell>
        <mxCell id="C2cE2xizqfg0F3UBhEci-17" style="edgeStyle=orthogonalEdgeStyle;rounded=0;orthogonalLoop=1;jettySize=auto;html=1;" parent="1" source="C2cE2xizqfg0F3UBhEci-13" target="kFtWYokVd-4Yp39-Zs3k-9" edge="1">
          <mxGeometry relative="1" as="geometry" />
        </mxCell>
        <mxCell id="C2cE2xizqfg0F3UBhEci-13" value="" style="verticalLabelPosition=bottom;verticalAlign=top;html=1;shape=mxgraph.flowchart.on-page_reference;aspect=fixed;" parent="1" vertex="1">
          <mxGeometry x="225" y="175" width="30" height="30" as="geometry" />
        </mxCell>
        <mxCell id="C2cE2xizqfg0F3UBhEci-16" style="edgeStyle=orthogonalEdgeStyle;rounded=0;orthogonalLoop=1;jettySize=auto;html=1;entryX=0;entryY=0.5;entryDx=0;entryDy=0;entryPerimeter=0;" parent="1" source="kFtWYokVd-4Yp39-Zs3k-17" target="kFtWYokVd-4Yp39-Zs3k-9" edge="1">
          <mxGeometry relative="1" as="geometry">
            <Array as="points">
              <mxPoint x="329" y="470" />
              <mxPoint x="329" y="190" />
            </Array>
          </mxGeometry>
        </mxCell>
        <mxCell id="C2cE2xizqfg0F3UBhEci-22" value="Exit" style="strokeWidth=2;html=1;shape=mxgraph.flowchart.terminator;whiteSpace=wrap;" parent="1" vertex="1">
          <mxGeometry x="690" y="268" width="100" height="60" as="geometry" />
        </mxCell>
        <mxCell id="C2cE2xizqfg0F3UBhEci-31" style="edgeStyle=orthogonalEdgeStyle;rounded=0;orthogonalLoop=1;jettySize=auto;html=1;" parent="1" source="C2cE2xizqfg0F3UBhEci-25" target="Rjem1qnT5105job-FSoT-5" edge="1">
          <mxGeometry relative="1" as="geometry">
            <mxPoint x="420" y="360" as="targetPoint" />
          </mxGeometry>
        </mxCell>
        <mxCell id="C2cE2xizqfg0F3UBhEci-25" value="" style="verticalLabelPosition=bottom;verticalAlign=top;html=1;shape=mxgraph.flowchart.on-page_reference;aspect=fixed;" parent="1" vertex="1">
          <mxGeometry x="405" y="285" width="30" height="30" as="geometry" />
        </mxCell>
        <mxCell id="C2cE2xizqfg0F3UBhEci-27" value="Yes" style="edgeStyle=orthogonalEdgeStyle;rounded=0;orthogonalLoop=1;jettySize=auto;html=1;entryX=0.5;entryY=0;entryDx=0;entryDy=0;entryPerimeter=0;" parent="1" source="kFtWYokVd-4Yp39-Zs3k-9" target="C2cE2xizqfg0F3UBhEci-25" edge="1">
          <mxGeometry relative="1" as="geometry" />
        </mxCell>
        <mxCell id="C2cE2xizqfg0F3UBhEci-45" style="edgeStyle=orthogonalEdgeStyle;rounded=0;orthogonalLoop=1;jettySize=auto;html=1;" parent="1" source="C2cE2xizqfg0F3UBhEci-32" target="kFtWYokVd-4Yp39-Zs3k-50" edge="1">
          <mxGeometry relative="1" as="geometry" />
        </mxCell>
        <mxCell id="C2cE2xizqfg0F3UBhEci-32" value="" style="verticalLabelPosition=bottom;verticalAlign=top;html=1;shape=mxgraph.flowchart.on-page_reference;aspect=fixed;" parent="1" vertex="1">
          <mxGeometry x="405" y="685" width="30" height="30" as="geometry" />
        </mxCell>
        <mxCell id="C2cE2xizqfg0F3UBhEci-46" style="edgeStyle=orthogonalEdgeStyle;rounded=0;orthogonalLoop=1;jettySize=auto;html=1;" parent="1" source="C2cE2xizqfg0F3UBhEci-39" target="kFtWYokVd-4Yp39-Zs3k-50" edge="1">
          <mxGeometry relative="1" as="geometry" />
        </mxCell>
        <mxCell id="C2cE2xizqfg0F3UBhEci-39" value="" style="verticalLabelPosition=bottom;verticalAlign=top;html=1;shape=mxgraph.flowchart.on-page_reference;aspect=fixed;" parent="1" vertex="1">
          <mxGeometry x="565" y="685" width="30" height="30" as="geometry" />
        </mxCell>
        <mxCell id="C2cE2xizqfg0F3UBhEci-47" style="edgeStyle=orthogonalEdgeStyle;rounded=0;orthogonalLoop=1;jettySize=auto;html=1;" parent="1" source="C2cE2xizqfg0F3UBhEci-41" target="kFtWYokVd-4Yp39-Zs3k-50" edge="1">
          <mxGeometry relative="1" as="geometry" />
        </mxCell>
        <mxCell id="C2cE2xizqfg0F3UBhEci-41" value="" style="verticalLabelPosition=bottom;verticalAlign=top;html=1;shape=mxgraph.flowchart.on-page_reference;aspect=fixed;" parent="1" vertex="1">
          <mxGeometry x="725" y="685" width="30" height="30" as="geometry" />
        </mxCell>
        <mxCell id="Rjem1qnT5105job-FSoT-1" value="Report unlock response" style="strokeWidth=2;html=1;shape=mxgraph.flowchart.terminator;whiteSpace=wrap;" parent="1" vertex="1">
          <mxGeometry x="985" y="510" width="100" height="60" as="geometry" />
        </mxCell>
        <mxCell id="Rjem1qnT5105job-FSoT-6" style="edgeStyle=orthogonalEdgeStyle;rounded=0;orthogonalLoop=1;jettySize=auto;html=1;" parent="1" source="Rjem1qnT5105job-FSoT-5" target="kFtWYokVd-4Yp39-Zs3k-38" edge="1">
          <mxGeometry relative="1" as="geometry" />
        </mxCell>
        <mxCell id="Rjem1qnT5105job-FSoT-5" value="Unlock vault" style="shape=parallelogram;html=1;strokeWidth=2;perimeter=parallelogramPerimeter;whiteSpace=wrap;rounded=1;arcSize=12;size=0.23;fillColor=#d5e8d4;strokeColor=#82b366;" parent="1" vertex="1">
          <mxGeometry x="340" y="365" width="160" height="60" as="geometry" />
        </mxCell>
      </root>
    </mxGraphModel>
  </diagram>
  <diagram name="Configure TID" id="jQZHJ6nBqQUbSvp1v4LZ">
    <mxGraphModel dx="930" dy="-136" grid="0" gridSize="10" guides="1" tooltips="1" connect="1" arrows="1" fold="1" page="1" pageScale="1" pageWidth="1100" pageHeight="850" background="none" math="0" shadow="0">
      <root>
        <mxCell id="8kntY9Pogjf4PuWjMXDC-0" />
        <mxCell id="8kntY9Pogjf4PuWjMXDC-1" parent="8kntY9Pogjf4PuWjMXDC-0" />
        <mxCell id="8kntY9Pogjf4PuWjMXDC-31" value="No" style="edgeStyle=orthogonalEdgeStyle;rounded=0;orthogonalLoop=1;jettySize=auto;html=1;" edge="1" parent="8kntY9Pogjf4PuWjMXDC-1" source="8kntY9Pogjf4PuWjMXDC-33" target="8kntY9Pogjf4PuWjMXDC-39">
          <mxGeometry relative="1" as="geometry" />
        </mxCell>
        <mxCell id="8kntY9Pogjf4PuWjMXDC-32" value="Yes" style="edgeStyle=orthogonalEdgeStyle;rounded=0;orthogonalLoop=1;jettySize=auto;html=1;entryX=0;entryY=0.5;entryDx=0;entryDy=0;" edge="1" parent="8kntY9Pogjf4PuWjMXDC-1" source="8kntY9Pogjf4PuWjMXDC-33" target="8kntY9Pogjf4PuWjMXDC-36">
          <mxGeometry relative="1" as="geometry" />
        </mxCell>
        <mxCell id="8kntY9Pogjf4PuWjMXDC-33" value="sudo_local?" style="rhombus;whiteSpace=wrap;html=1;rounded=1;absoluteArcSize=1;arcSize=14;strokeWidth=2;fillColor=#ffe6cc;strokeColor=#d79b00;" vertex="1" parent="8kntY9Pogjf4PuWjMXDC-1">
          <mxGeometry x="190" y="880" width="80" height="80" as="geometry" />
        </mxCell>
        <mxCell id="8kntY9Pogjf4PuWjMXDC-34" value="No" style="edgeStyle=orthogonalEdgeStyle;rounded=0;orthogonalLoop=1;jettySize=auto;html=1;" edge="1" parent="8kntY9Pogjf4PuWjMXDC-1" source="8kntY9Pogjf4PuWjMXDC-36" target="8kntY9Pogjf4PuWjMXDC-39">
          <mxGeometry relative="1" as="geometry" />
        </mxCell>
        <mxCell id="8kntY9Pogjf4PuWjMXDC-35" value="Yes" style="edgeStyle=orthogonalEdgeStyle;rounded=0;orthogonalLoop=1;jettySize=auto;html=1;" edge="1" parent="8kntY9Pogjf4PuWjMXDC-1" source="8kntY9Pogjf4PuWjMXDC-36" target="8kntY9Pogjf4PuWjMXDC-56">
          <mxGeometry relative="1" as="geometry" />
        </mxCell>
        <mxCell id="8kntY9Pogjf4PuWjMXDC-36" value="sudoers?" style="rhombus;whiteSpace=wrap;html=1;rounded=1;absoluteArcSize=1;arcSize=14;strokeWidth=2;fillColor=#fff2cc;strokeColor=#d6b656;" vertex="1" parent="8kntY9Pogjf4PuWjMXDC-1">
          <mxGeometry x="310" y="880" width="80" height="80" as="geometry" />
        </mxCell>
        <mxCell id="8kntY9Pogjf4PuWjMXDC-37" value="Yes" style="edgeStyle=orthogonalEdgeStyle;rounded=0;orthogonalLoop=1;jettySize=auto;html=1;" edge="1" parent="8kntY9Pogjf4PuWjMXDC-1" source="8kntY9Pogjf4PuWjMXDC-39" target="8kntY9Pogjf4PuWjMXDC-42">
          <mxGeometry relative="1" as="geometry">
            <mxPoint x="390" y="1040" as="targetPoint" />
          </mxGeometry>
        </mxCell>
        <mxCell id="8kntY9Pogjf4PuWjMXDC-38" value="No" style="edgeStyle=orthogonalEdgeStyle;rounded=0;orthogonalLoop=1;jettySize=auto;html=1;" edge="1" parent="8kntY9Pogjf4PuWjMXDC-1" source="8kntY9Pogjf4PuWjMXDC-39" target="8kntY9Pogjf4PuWjMXDC-40">
          <mxGeometry relative="1" as="geometry" />
        </mxCell>
        <mxCell id="8kntY9Pogjf4PuWjMXDC-39" value="sudo?" style="rhombus;whiteSpace=wrap;html=1;rounded=1;absoluteArcSize=1;arcSize=14;strokeWidth=2;fillColor=#e1d5e7;strokeColor=#9673a6;" vertex="1" parent="8kntY9Pogjf4PuWjMXDC-1">
          <mxGeometry x="250" y="1000" width="80" height="80" as="geometry" />
        </mxCell>
        <mxCell id="8kntY9Pogjf4PuWjMXDC-40" value="Disable TID" style="rounded=1;whiteSpace=wrap;html=1;absoluteArcSize=1;arcSize=14;strokeWidth=2;fillColor=#e1d5e7;strokeColor=#9673a6;" vertex="1" parent="8kntY9Pogjf4PuWjMXDC-1">
          <mxGeometry x="400" y="990" width="100" height="100" as="geometry" />
        </mxCell>
        <mxCell id="8kntY9Pogjf4PuWjMXDC-41" value="Yes" style="edgeStyle=orthogonalEdgeStyle;rounded=0;orthogonalLoop=1;jettySize=auto;html=1;" edge="1" parent="8kntY9Pogjf4PuWjMXDC-1" source="8kntY9Pogjf4PuWjMXDC-42" target="8kntY9Pogjf4PuWjMXDC-45">
          <mxGeometry relative="1" as="geometry" />
        </mxCell>
        <mxCell id="8kntY9Pogjf4PuWjMXDC-42" value="Update system?" style="strokeWidth=2;html=1;shape=mxgraph.flowchart.decision;whiteSpace=wrap;fillColor=#e1d5e7;strokeColor=#9673a6;" vertex="1" parent="8kntY9Pogjf4PuWjMXDC-1">
          <mxGeometry x="240" y="1130" width="100" height="100" as="geometry" />
        </mxCell>
        <mxCell id="8kntY9Pogjf4PuWjMXDC-43" value="No" style="edgeStyle=orthogonalEdgeStyle;rounded=0;orthogonalLoop=1;jettySize=auto;html=1;" edge="1" parent="8kntY9Pogjf4PuWjMXDC-1" source="8kntY9Pogjf4PuWjMXDC-45" target="8kntY9Pogjf4PuWjMXDC-47">
          <mxGeometry relative="1" as="geometry" />
        </mxCell>
        <mxCell id="8kntY9Pogjf4PuWjMXDC-44" value="Yes" style="edgeStyle=orthogonalEdgeStyle;rounded=0;orthogonalLoop=1;jettySize=auto;html=1;" edge="1" parent="8kntY9Pogjf4PuWjMXDC-1" source="8kntY9Pogjf4PuWjMXDC-45" target="8kntY9Pogjf4PuWjMXDC-51">
          <mxGeometry relative="1" as="geometry" />
        </mxCell>
        <mxCell id="8kntY9Pogjf4PuWjMXDC-45" value="sudo_local?" style="rhombus;whiteSpace=wrap;html=1;rounded=1;absoluteArcSize=1;arcSize=14;strokeWidth=2;fillColor=#ffe6cc;strokeColor=#d79b00;" vertex="1" parent="8kntY9Pogjf4PuWjMXDC-1">
          <mxGeometry x="250" y="1270" width="80" height="80" as="geometry" />
        </mxCell>
        <mxCell id="8kntY9Pogjf4PuWjMXDC-46" style="edgeStyle=orthogonalEdgeStyle;rounded=0;orthogonalLoop=1;jettySize=auto;html=1;" edge="1" parent="8kntY9Pogjf4PuWjMXDC-1" source="8kntY9Pogjf4PuWjMXDC-47" target="8kntY9Pogjf4PuWjMXDC-49">
          <mxGeometry relative="1" as="geometry" />
        </mxCell>
        <mxCell id="8kntY9Pogjf4PuWjMXDC-47" value="Update sudo_local" style="rounded=1;whiteSpace=wrap;html=1;absoluteArcSize=1;arcSize=14;strokeWidth=2;fillColor=#ffe6cc;strokeColor=#d79b00;" vertex="1" parent="8kntY9Pogjf4PuWjMXDC-1">
          <mxGeometry x="400" y="1260" width="100" height="100" as="geometry" />
        </mxCell>
        <mxCell id="8kntY9Pogjf4PuWjMXDC-48" value="Yes" style="edgeStyle=orthogonalEdgeStyle;rounded=0;orthogonalLoop=1;jettySize=auto;html=1;" edge="1" parent="8kntY9Pogjf4PuWjMXDC-1" source="8kntY9Pogjf4PuWjMXDC-49" target="8kntY9Pogjf4PuWjMXDC-51">
          <mxGeometry relative="1" as="geometry">
            <Array as="points">
              <mxPoint x="570" y="1380" />
              <mxPoint x="290" y="1380" />
            </Array>
          </mxGeometry>
        </mxCell>
        <mxCell id="8kntY9Pogjf4PuWjMXDC-49" value="sudo_local?" style="rhombus;whiteSpace=wrap;html=1;rounded=1;absoluteArcSize=1;arcSize=14;strokeWidth=2;fillColor=#ffe6cc;strokeColor=#d79b00;" vertex="1" parent="8kntY9Pogjf4PuWjMXDC-1">
          <mxGeometry x="530" y="1270" width="80" height="80" as="geometry" />
        </mxCell>
        <mxCell id="8kntY9Pogjf4PuWjMXDC-50" value="No" style="edgeStyle=orthogonalEdgeStyle;rounded=0;orthogonalLoop=1;jettySize=auto;html=1;" edge="1" parent="8kntY9Pogjf4PuWjMXDC-1" source="8kntY9Pogjf4PuWjMXDC-51" target="8kntY9Pogjf4PuWjMXDC-53">
          <mxGeometry relative="1" as="geometry" />
        </mxCell>
        <mxCell id="8kntY9Pogjf4PuWjMXDC-51" value="sudoers?" style="rhombus;whiteSpace=wrap;html=1;rounded=1;absoluteArcSize=1;arcSize=14;strokeWidth=2;fillColor=#fff2cc;strokeColor=#d6b656;" vertex="1" parent="8kntY9Pogjf4PuWjMXDC-1">
          <mxGeometry x="250" y="1430" width="80" height="80" as="geometry" />
        </mxCell>
        <mxCell id="8kntY9Pogjf4PuWjMXDC-52" style="edgeStyle=orthogonalEdgeStyle;rounded=0;orthogonalLoop=1;jettySize=auto;html=1;" edge="1" parent="8kntY9Pogjf4PuWjMXDC-1" source="8kntY9Pogjf4PuWjMXDC-53" target="8kntY9Pogjf4PuWjMXDC-55">
          <mxGeometry relative="1" as="geometry" />
        </mxCell>
        <mxCell id="8kntY9Pogjf4PuWjMXDC-53" value="Update sudoers" style="rounded=1;whiteSpace=wrap;html=1;absoluteArcSize=1;arcSize=14;strokeWidth=2;fillColor=#fff2cc;strokeColor=#d6b656;" vertex="1" parent="8kntY9Pogjf4PuWjMXDC-1">
          <mxGeometry x="400" y="1420" width="100" height="100" as="geometry" />
        </mxCell>
        <mxCell id="SH6IQnuCNDsXOO3dxa4m-0" style="edgeStyle=orthogonalEdgeStyle;rounded=0;orthogonalLoop=1;jettySize=auto;html=1;" edge="1" parent="8kntY9Pogjf4PuWjMXDC-1" source="8kntY9Pogjf4PuWjMXDC-55" target="8kntY9Pogjf4PuWjMXDC-56">
          <mxGeometry relative="1" as="geometry" />
        </mxCell>
        <mxCell id="8kntY9Pogjf4PuWjMXDC-55" value="sudoers?" style="rhombus;whiteSpace=wrap;html=1;rounded=1;absoluteArcSize=1;arcSize=14;strokeWidth=2;fillColor=#fff2cc;strokeColor=#d6b656;" vertex="1" parent="8kntY9Pogjf4PuWjMXDC-1">
          <mxGeometry x="530" y="1430" width="80" height="80" as="geometry" />
        </mxCell>
        <mxCell id="8kntY9Pogjf4PuWjMXDC-56" value="Exit" style="strokeWidth=2;html=1;shape=mxgraph.flowchart.terminator;whiteSpace=wrap;fillColor=#f8cecc;strokeColor=#b85450;" vertex="1" parent="8kntY9Pogjf4PuWjMXDC-1">
          <mxGeometry x="720" y="1010" width="100" height="60" as="geometry" />
        </mxCell>
        <mxCell id="8kntY9Pogjf4PuWjMXDC-57" value="No" style="edgeStyle=orthogonalEdgeStyle;rounded=0;orthogonalLoop=1;jettySize=auto;html=1;entryX=0;entryY=0.5;entryDx=0;entryDy=0;entryPerimeter=0;" edge="1" parent="8kntY9Pogjf4PuWjMXDC-1" source="8kntY9Pogjf4PuWjMXDC-49" target="8kntY9Pogjf4PuWjMXDC-56">
          <mxGeometry relative="1" as="geometry" />
        </mxCell>
        <mxCell id="8kntY9Pogjf4PuWjMXDC-58" style="edgeStyle=orthogonalEdgeStyle;rounded=0;orthogonalLoop=1;jettySize=auto;html=1;entryX=0;entryY=0.5;entryDx=0;entryDy=0;entryPerimeter=0;" edge="1" parent="8kntY9Pogjf4PuWjMXDC-1" source="8kntY9Pogjf4PuWjMXDC-40" target="8kntY9Pogjf4PuWjMXDC-56">
          <mxGeometry relative="1" as="geometry" />
        </mxCell>
        <mxCell id="8kntY9Pogjf4PuWjMXDC-74" style="edgeStyle=orthogonalEdgeStyle;rounded=0;orthogonalLoop=1;jettySize=auto;html=1;entryX=0;entryY=0.5;entryDx=0;entryDy=0;" edge="1" parent="8kntY9Pogjf4PuWjMXDC-1" source="8kntY9Pogjf4PuWjMXDC-75" target="8kntY9Pogjf4PuWjMXDC-33">
          <mxGeometry relative="1" as="geometry" />
        </mxCell>
        <mxCell id="8kntY9Pogjf4PuWjMXDC-75" value="Configure TID" style="strokeWidth=2;html=1;shape=mxgraph.flowchart.start_1;whiteSpace=wrap;fillColor=#f8cecc;strokeColor=#b85450;" vertex="1" parent="8kntY9Pogjf4PuWjMXDC-1">
          <mxGeometry x="40" y="890" width="100" height="60" as="geometry" />
        </mxCell>
      </root>
    </mxGraphModel>
  </diagram>
</mxfile>
